<svg width="53" height="21" viewBox="0 0 53 21" fill="none" xmlns="http://www.w3.org/2000/svg">
<path d="M21 10H19V4H20V2H4V4H5V10H3C2.73478 10 2.48043 10.1054 2.29289 10.2929C2.10536 10.4804 2 10.7348 2 11V20H22V11C22 10.7348 21.8946 10.4804 21.7071 10.2929C21.5196 10.1054 21.2652 10 21 10ZM14 18V14H10V18H7V4H17V18H14Z" fill="black"/>
<path d="M9 6H11V8H9V6ZM13 6H15V8H13V6ZM9 10H11V12H9V10ZM13 10H15V12H13V10Z" fill="black"/>
<path d="M28.394 8.983C27.926 8.983 27.518 8.896 27.17 8.722C26.828 8.542 26.534 8.284 26.288 7.948L26.945 7.345C27.131 7.603 27.344 7.801 27.584 7.939C27.824 8.077 28.097 8.146 28.403 8.146C29.147 8.146 29.519 7.804 29.519 7.12C29.519 6.844 29.453 6.634 29.321 6.49C29.189 6.34 28.961 6.226 28.637 6.148L28.124 6.04C27.56 5.914 27.143 5.713 26.873 5.437C26.609 5.155 26.477 4.762 26.477 4.258C26.477 3.676 26.651 3.235 26.999 2.935C27.353 2.635 27.845 2.485 28.475 2.485C28.925 2.485 29.303 2.563 29.609 2.719C29.921 2.869 30.191 3.106 30.419 3.43L29.762 4.006C29.6 3.778 29.417 3.607 29.213 3.493C29.015 3.379 28.763 3.322 28.457 3.322C28.115 3.322 27.857 3.394 27.683 3.538C27.515 3.676 27.431 3.907 27.431 4.231C27.431 4.495 27.497 4.696 27.629 4.834C27.767 4.966 27.989 5.068 28.295 5.14L28.808 5.257C29.108 5.323 29.363 5.407 29.573 5.509C29.783 5.605 29.954 5.725 30.086 5.869C30.224 6.013 30.323 6.184 30.383 6.382C30.443 6.574 30.473 6.799 30.473 7.057C30.473 7.687 30.29 8.167 29.924 8.497C29.564 8.821 29.054 8.983 28.394 8.983Z" fill="black"/>
<path d="M33.4888 8.983C32.8768 8.983 32.4058 8.788 32.0758 8.398C31.7458 8.008 31.5808 7.387 31.5808 6.535C31.5808 5.683 31.7458 5.062 32.0758 4.672C32.4058 4.282 32.8768 4.087 33.4888 4.087C33.9388 4.087 34.2988 4.192 34.5688 4.402C34.8388 4.606 35.0338 4.879 35.1538 5.221L34.3888 5.581C34.3348 5.347 34.2358 5.17 34.0918 5.05C33.9538 4.924 33.7528 4.861 33.4888 4.861C32.8708 4.861 32.5618 5.236 32.5618 5.986V7.084C32.5618 7.834 32.8708 8.209 33.4888 8.209C33.7588 8.209 33.9688 8.146 34.1188 8.02C34.2748 7.888 34.3948 7.696 34.4788 7.444L35.1808 7.831C35.0428 8.197 34.8328 8.482 34.5508 8.686C34.2748 8.884 33.9208 8.983 33.4888 8.983Z" fill="black"/>
<path d="M36.4224 2.215H37.3494V4.969H37.4574C37.6434 4.381 38.0274 4.087 38.6094 4.087C39.0294 4.087 39.3534 4.231 39.5814 4.519C39.8154 4.801 39.9324 5.218 39.9324 5.77V8.875H39.0054V5.896C39.0054 5.566 38.9424 5.314 38.8164 5.14C38.6904 4.966 38.4924 4.879 38.2224 4.879C37.9764 4.879 37.7694 4.954 37.6014 5.104C37.4334 5.248 37.3494 5.452 37.3494 5.716V8.875H36.4224V2.215Z" fill="black"/>
<path d="M43.2029 8.983C42.9029 8.983 42.6329 8.935 42.3929 8.839C42.1589 8.743 41.9549 8.596 41.7809 8.398C41.6129 8.2 41.4839 7.948 41.3939 7.642C41.3039 7.33 41.2589 6.961 41.2589 6.535C41.2589 6.109 41.3039 5.743 41.3939 5.437C41.4839 5.125 41.6129 4.87 41.7809 4.672C41.9549 4.474 42.1589 4.327 42.3929 4.231C42.6329 4.135 42.9029 4.087 43.2029 4.087C43.4969 4.087 43.7639 4.135 44.0039 4.231C44.2439 4.327 44.4479 4.474 44.6159 4.672C44.7899 4.87 44.9219 5.125 45.0119 5.437C45.1019 5.743 45.1469 6.109 45.1469 6.535C45.1469 6.961 45.1019 7.33 45.0119 7.642C44.9219 7.948 44.7899 8.2 44.6159 8.398C44.4479 8.596 44.2439 8.743 44.0039 8.839C43.7639 8.935 43.4969 8.983 43.2029 8.983ZM43.2029 8.209C43.5149 8.209 43.7519 8.116 43.9139 7.93C44.0819 7.744 44.1659 7.462 44.1659 7.084V5.986C44.1659 5.608 44.0819 5.326 43.9139 5.14C43.7519 4.954 43.5149 4.861 43.2029 4.861C42.8909 4.861 42.6509 4.954 42.4829 5.14C42.3209 5.326 42.2399 5.608 42.2399 5.986V7.084C42.2399 7.462 42.3209 7.744 42.4829 7.93C42.6509 8.116 42.8909 8.209 43.2029 8.209Z" fill="black"/>
<path d="M48.1607 8.983C47.8607 8.983 47.5907 8.935 47.3507 8.839C47.1167 8.743 46.9127 8.596 46.7387 8.398C46.5707 8.2 46.4417 7.948 46.3517 7.642C46.2617 7.33 46.2167 6.961 46.2167 6.535C46.2167 6.109 46.2617 5.743 46.3517 5.437C46.4417 5.125 46.5707 4.87 46.7387 4.672C46.9127 4.474 47.1167 4.327 47.3507 4.231C47.5907 4.135 47.8607 4.087 48.1607 4.087C48.4547 4.087 48.7217 4.135 48.9617 4.231C49.2017 4.327 49.4057 4.474 49.5737 4.672C49.7477 4.87 49.8797 5.125 49.9697 5.437C50.0597 5.743 50.1047 6.109 50.1047 6.535C50.1047 6.961 50.0597 7.33 49.9697 7.642C49.8797 7.948 49.7477 8.2 49.5737 8.398C49.4057 8.596 49.2017 8.743 48.9617 8.839C48.7217 8.935 48.4547 8.983 48.1607 8.983ZM48.1607 8.209C48.4727 8.209 48.7097 8.116 48.8717 7.93C49.0397 7.744 49.1237 7.462 49.1237 7.084V5.986C49.1237 5.608 49.0397 5.326 48.8717 5.14C48.7097 4.954 48.4727 4.861 48.1607 4.861C47.8487 4.861 47.6087 4.954 47.4407 5.14C47.2787 5.326 47.1977 5.608 47.1977 5.986V7.084C47.1977 7.462 47.2787 7.744 47.4407 7.93C47.6087 8.116 47.8487 8.209 48.1607 8.209Z" fill="black"/>
<path d="M52.3894 8.875C52.0654 8.875 51.8314 8.803 51.6874 8.659C51.5434 8.509 51.4714 8.278 51.4714 7.966V2.215H52.3984V8.11H52.9564V8.875H52.3894Z" fill="black"/>
<path d="M27.782 18.875C27.458 18.875 27.221 18.803 27.071 18.659C26.927 18.515 26.855 18.281 26.855 17.957V14.96H26.207V14.195H26.567C26.717 14.195 26.816 14.162 26.864 14.096C26.918 14.024 26.945 13.913 26.945 13.763V12.917H27.782V14.195H28.655V14.96H27.782V18.11H28.592V18.875H27.782Z" fill="black"/>
<path d="M31.6628 18.983C31.3688 18.983 31.0988 18.935 30.8528 18.839C30.6068 18.743 30.3968 18.596 30.2228 18.398C30.0488 18.194 29.9108 17.939 29.8088 17.633C29.7128 17.327 29.6648 16.961 29.6648 16.535C29.6648 16.109 29.7098 15.743 29.7998 15.437C29.8898 15.125 30.0188 14.87 30.1868 14.672C30.3608 14.474 30.5648 14.327 30.7988 14.231C31.0388 14.135 31.3088 14.087 31.6088 14.087C32.2028 14.087 32.6648 14.282 32.9948 14.672C33.3308 15.062 33.4988 15.683 33.4988 16.535V16.769H30.6368V17.066C30.6368 17.438 30.7298 17.723 30.9158 17.921C31.1078 18.119 31.3688 18.218 31.6988 18.218C31.9808 18.218 32.2118 18.155 32.3918 18.029C32.5778 17.903 32.7338 17.726 32.8598 17.498L33.3998 18.011C33.2318 18.305 33.0038 18.542 32.7158 18.722C32.4338 18.896 32.0828 18.983 31.6628 18.983ZM31.6088 14.825C31.2968 14.825 31.0568 14.921 30.8888 15.113C30.7208 15.299 30.6368 15.581 30.6368 15.959V16.148H32.5178V15.959C32.5178 15.203 32.2148 14.825 31.6088 14.825Z" fill="black"/>
<path d="M36.2435 18.983C35.8535 18.983 35.5145 18.911 35.2265 18.767C34.9445 18.617 34.6985 18.401 34.4885 18.119L35.0825 17.57C35.2385 17.792 35.4095 17.96 35.5955 18.074C35.7815 18.182 36.0005 18.236 36.2525 18.236C36.4985 18.236 36.6875 18.182 36.8195 18.074C36.9515 17.96 37.0175 17.795 37.0175 17.579C37.0175 17.411 36.9755 17.276 36.8915 17.174C36.8075 17.072 36.6545 17 36.4325 16.958L36.0275 16.886C35.5535 16.802 35.2055 16.655 34.9835 16.445C34.7615 16.235 34.6505 15.923 34.6505 15.509C34.6505 15.023 34.7915 14.666 35.0735 14.438C35.3555 14.204 35.7425 14.087 36.2345 14.087C36.5945 14.087 36.9005 14.15 37.1525 14.276C37.4105 14.396 37.6355 14.573 37.8275 14.807L37.2695 15.356C37.1435 15.182 36.9905 15.053 36.8105 14.969C36.6365 14.879 36.4475 14.834 36.2435 14.834C35.7755 14.834 35.5415 15.047 35.5415 15.473C35.5415 15.659 35.5895 15.797 35.6855 15.887C35.7815 15.977 35.9345 16.04 36.1445 16.076L36.5585 16.157C37.0445 16.241 37.3895 16.391 37.5935 16.607C37.8035 16.817 37.9085 17.108 37.9085 17.48C37.9085 17.954 37.7645 18.323 37.4765 18.587C37.1885 18.851 36.7775 18.983 36.2435 18.983Z" fill="black"/>
<path d="M40.4228 18.875C40.0988 18.875 39.8618 18.803 39.7118 18.659C39.5678 18.515 39.4958 18.281 39.4958 17.957V14.96H38.8478V14.195H39.2078C39.3578 14.195 39.4568 14.162 39.5048 14.096C39.5588 14.024 39.5858 13.913 39.5858 13.763V12.917H40.4228V14.195H41.2958V14.96H40.4228V18.11H41.2328V18.875H40.4228Z" fill="black"/>
<path d="M43.9969 18.983C43.6069 18.983 43.2679 18.911 42.9799 18.767C42.6979 18.617 42.4519 18.401 42.2419 18.119L42.8359 17.57C42.9919 17.792 43.1629 17.96 43.3489 18.074C43.5349 18.182 43.7539 18.236 44.0059 18.236C44.2519 18.236 44.4409 18.182 44.5729 18.074C44.7049 17.96 44.7709 17.795 44.7709 17.579C44.7709 17.411 44.7289 17.276 44.6449 17.174C44.5609 17.072 44.4079 17 44.1859 16.958L43.7809 16.886C43.3069 16.802 42.9589 16.655 42.7369 16.445C42.5149 16.235 42.4039 15.923 42.4039 15.509C42.4039 15.023 42.5449 14.666 42.8269 14.438C43.1089 14.204 43.4959 14.087 43.9879 14.087C44.3479 14.087 44.6539 14.15 44.9059 14.276C45.1639 14.396 45.3889 14.573 45.5809 14.807L45.0229 15.356C44.8969 15.182 44.7439 15.053 44.5639 14.969C44.3899 14.879 44.2009 14.834 43.9969 14.834C43.5289 14.834 43.2949 15.047 43.2949 15.473C43.2949 15.659 43.3429 15.797 43.4389 15.887C43.5349 15.977 43.6879 16.04 43.8979 16.076L44.3119 16.157C44.7979 16.241 45.1429 16.391 45.3469 16.607C45.5569 16.817 45.6619 17.108 45.6619 17.48C45.6619 17.954 45.5179 18.323 45.2299 18.587C44.9419 18.851 44.5309 18.983 43.9969 18.983Z" fill="black"/>
</svg>
